<svg width="430" height="932" viewBox="0 0 430 932" fill="none" xmlns="http://www.w3.org/2000/svg">
<g clip-path="url(#clip0_5_165)">
<rect width="430" height="932" fill="#F8F7F4"/>
<g opacity="0.03" clip-path="url(#clip1_5_165)">
<mask id="path-1-inside-1_5_165" fill="white">
<path d="M175.57 32C175.57 -90.8445 275.155 -190.43 398 -190.43C520.845 -190.43 620.43 -90.8445 620.43 32C620.43 154.845 520.845 254.43 398 254.43C275.155 254.43 175.57 154.845 175.57 32Z"/>
</mask>
<path d="M398 254.43V248.43C278.469 248.43 181.57 151.531 181.57 32H175.57H169.57C169.57 158.158 271.842 260.43 398 260.43V254.43ZM620.43 32H614.43C614.43 151.531 517.531 248.43 398 248.43V254.43V260.43C524.158 260.43 626.43 158.158 626.43 32H620.43ZM398 -190.43V-184.43C517.531 -184.43 614.43 -87.5308 614.43 32H620.43H626.43C626.43 -94.1582 524.158 -196.43 398 -196.43V-190.43ZM398 -190.43V-196.43C271.842 -196.43 169.57 -94.1582 169.57 32H175.57H181.57C181.57 -87.5308 278.469 -184.43 398 -184.43V-190.43Z" fill="#0D7E5E" mask="url(#path-1-inside-1_5_165)"/>
<mask id="path-3-inside-2_5_165" fill="white">
<path d="M-190.43 900C-190.43 777.155 -90.8445 677.57 32 677.57C154.845 677.57 254.43 777.155 254.43 900C254.43 1022.84 154.845 1122.43 32 1122.43C-90.8445 1122.43 -190.43 1022.84 -190.43 900Z"/>
</mask>
<path d="M32 1122.43V1116.43C-87.5308 1116.43 -184.43 1019.53 -184.43 900H-190.43H-196.43C-196.43 1026.16 -94.1582 1128.43 32 1128.43V1122.43ZM254.43 900H248.43C248.43 1019.53 151.531 1116.43 32 1116.43V1122.43V1128.43C158.158 1128.43 260.43 1026.16 260.43 900H254.43ZM32 677.57V683.57C151.531 683.57 248.43 780.469 248.43 900H254.43H260.43C260.43 773.842 158.158 671.57 32 671.57V677.57ZM32 677.57V671.57C-94.1582 671.57 -196.43 773.842 -196.43 900H-190.43H-184.43C-184.43 780.469 -87.5308 683.57 32 683.57V677.57Z" fill="#D4AF37" mask="url(#path-3-inside-2_5_165)"/>
<mask id="path-5-inside-3_5_165" fill="white">
<path d="M23 466C23 359.961 108.961 274 215 274C321.039 274 407 359.961 407 466C407 572.039 321.039 658 215 658C108.961 658 23 572.039 23 466Z"/>
</mask>
<path d="M215 658V654C111.17 654 27 569.83 27 466H23H19C19 574.248 106.752 662 215 662V658ZM407 466H403C403 569.83 318.83 654 215 654V658V662C323.248 662 411 574.248 411 466H407ZM215 274V278C318.83 278 403 362.17 403 466H407H411C411 357.752 323.248 270 215 270V274ZM215 274V270C106.752 270 19 357.752 19 466H23H27C27 362.17 111.17 278 215 278V274Z" fill="#0D7E5E" mask="url(#path-5-inside-3_5_165)"/>
</g>
</g>
<defs>
<clipPath id="clip0_5_165">
<rect width="430" height="932" fill="white"/>
</clipPath>
<clipPath id="clip1_5_165">
<rect width="430" height="932" fill="white"/>
</clipPath>
</defs>
</svg>
