<svg width="430" height="932" viewBox="0 0 430 932" fill="none" xmlns="http://www.w3.org/2000/svg">
<g clip-path="url(#clip0_2_7)">
<rect width="430" height="932" fill="url(#paint0_linear_2_7)"/>
<g opacity="0.1">
<mask id="path-1-inside-1_2_7" fill="white">
<path d="M40 144C40 108.654 68.6538 80 104 80C139.346 80 168 108.654 168 144C168 179.346 139.346 208 104 208C68.6538 208 40 179.346 40 144Z"/>
</mask>
<path d="M104 208V204C70.8629 204 44 177.137 44 144H40H36C36 181.555 66.4446 212 104 212V208ZM168 144H164C164 177.137 137.137 204 104 204V208V212C141.555 212 172 181.555 172 144H168ZM104 80V84C137.137 84 164 110.863 164 144H168H172C172 106.445 141.555 76 104 76V80ZM104 80V76C66.4446 76 36 106.445 36 144H40H44C44 110.863 70.8629 84 104 84V80Z" fill="#D4AF37" mask="url(#path-1-inside-1_2_7)"/>
<mask id="path-3-inside-2_2_7" fill="white">
<path d="M230 772C230 727.817 265.817 692 310 692C354.183 692 390 727.817 390 772C390 816.183 354.183 852 310 852C265.817 852 230 816.183 230 772Z"/>
</mask>
<path d="M310 852V848C268.026 848 234 813.974 234 772H230H226C226 818.392 263.608 856 310 856V852ZM390 772H386C386 813.974 351.974 848 310 848V852V856C356.392 856 394 818.392 394 772H390ZM310 692V696C351.974 696 386 730.026 386 772H390H394C394 725.608 356.392 688 310 688V692ZM310 692V688C263.608 688 226 725.608 226 772H230H234C234 730.026 268.026 696 310 696V692Z" fill="#D4AF37" mask="url(#path-3-inside-2_2_7)"/>
<mask id="path-5-inside-3_2_7" fill="white">
<path d="M87 466C87 395.308 144.308 338 215 338C285.692 338 343 395.308 343 466C343 536.692 285.692 594 215 594C144.308 594 87 536.692 87 466Z"/>
</mask>
<path d="M215 594V592C145.412 592 89 535.588 89 466H87H85C85 537.797 143.203 596 215 596V594ZM343 466H341C341 535.588 284.588 592 215 592V594V596C286.797 596 345 537.797 345 466H343ZM215 338V340C284.588 340 341 396.412 341 466H343H345C345 394.203 286.797 336 215 336V338ZM215 338V336C143.203 336 85 394.203 85 466H87H89C89 396.412 145.412 340 215 340V338Z" fill="#D4AF37" mask="url(#path-5-inside-3_2_7)"/>
</g>
</g>
<defs>
<linearGradient id="paint0_linear_2_7" x1="215" y1="0" x2="215" y2="932" gradientUnits="userSpaceOnUse">
<stop stop-color="#0D7E5E"/>
<stop offset="0.5" stop-color="#0D7E5E"/>
<stop offset="1" stop-color="#0A6349"/>
</linearGradient>
<clipPath id="clip0_2_7">
<rect width="430" height="932" fill="white"/>
</clipPath>
</defs>
</svg>
